<mxfile host="app.diagrams.net" modified="2020-04-22T07:41:08.411Z" agent="5.0 (Macintosh; Intel Mac OS X 10_15_1) AppleWebKit/537.36 (KHTML, like Gecko) Chrome/81.0.4044.113 Safari/537.36" etag="Bz6AoeTHtuO7aai8ME6A" version="13.0.1" type="github">
  <diagram name="Page-1" id="13e1069c-82ec-6db2-03f1-153e76fe0fe0">
    <mxGraphModel dx="946" dy="-285" grid="1" gridSize="10" guides="1" tooltips="1" connect="1" arrows="1" fold="1" page="1" pageScale="1" pageWidth="1100" pageHeight="850" background="#ffffff" math="0" shadow="0">
      <root>
        <mxCell id="0" />
        <mxCell id="1" parent="0" />
        <mxCell id="9d85jHkb-GYw1wNce4ki-1" value="API Server" style="shape=umlLifeline;perimeter=lifelinePerimeter;whiteSpace=wrap;html=1;container=1;collapsible=0;recursiveResize=0;outlineConnect=0;" vertex="1" parent="1">
          <mxGeometry x="110" y="920" width="100" height="370" as="geometry" />
        </mxCell>
        <mxCell id="9d85jHkb-GYw1wNce4ki-7" value="" style="html=1;points=[];perimeter=orthogonalPerimeter;" vertex="1" parent="9d85jHkb-GYw1wNce4ki-1">
          <mxGeometry x="45" y="67" width="10" height="253" as="geometry" />
        </mxCell>
        <mxCell id="9d85jHkb-GYw1wNce4ki-10" value="服务升级" style="html=1;verticalAlign=bottom;endArrow=block;" edge="1" parent="9d85jHkb-GYw1wNce4ki-1">
          <mxGeometry width="80" relative="1" as="geometry">
            <mxPoint x="55" y="81" as="sourcePoint" />
            <mxPoint x="194.5" y="81" as="targetPoint" />
          </mxGeometry>
        </mxCell>
        <mxCell id="9d85jHkb-GYw1wNce4ki-2" value="Controller" style="shape=umlLifeline;perimeter=lifelinePerimeter;whiteSpace=wrap;html=1;container=1;collapsible=0;recursiveResize=0;outlineConnect=0;" vertex="1" parent="1">
          <mxGeometry x="260" y="920" width="100" height="370" as="geometry" />
        </mxCell>
        <mxCell id="9d85jHkb-GYw1wNce4ki-9" value="" style="html=1;points=[];perimeter=orthogonalPerimeter;" vertex="1" parent="9d85jHkb-GYw1wNce4ki-2">
          <mxGeometry x="45" y="80" width="10" height="240" as="geometry" />
        </mxCell>
        <mxCell id="9d85jHkb-GYw1wNce4ki-11" value="升级" style="html=1;verticalAlign=bottom;endArrow=block;" edge="1" parent="9d85jHkb-GYw1wNce4ki-2">
          <mxGeometry width="80" relative="1" as="geometry">
            <mxPoint x="60" y="201" as="sourcePoint" />
            <mxPoint x="209.5" y="201" as="targetPoint" />
          </mxGeometry>
        </mxCell>
        <mxCell id="9d85jHkb-GYw1wNce4ki-13" value="下线实例" style="html=1;verticalAlign=bottom;endArrow=block;" edge="1" parent="9d85jHkb-GYw1wNce4ki-2">
          <mxGeometry width="80" relative="1" as="geometry">
            <mxPoint x="60" y="155" as="sourcePoint" />
            <mxPoint x="349.5" y="155" as="targetPoint" />
          </mxGeometry>
        </mxCell>
        <mxCell id="9d85jHkb-GYw1wNce4ki-15" value="" style="html=1;points=[];perimeter=orthogonalPerimeter;" vertex="1" parent="9d85jHkb-GYw1wNce4ki-2">
          <mxGeometry x="55" y="110" width="10" height="40" as="geometry" />
        </mxCell>
        <mxCell id="9d85jHkb-GYw1wNce4ki-16" value="根据升级策略&lt;br&gt;选择升级实例" style="edgeStyle=orthogonalEdgeStyle;html=1;align=left;spacingLeft=2;endArrow=block;rounded=0;entryX=1;entryY=0;" edge="1" target="9d85jHkb-GYw1wNce4ki-15" parent="9d85jHkb-GYw1wNce4ki-2">
          <mxGeometry relative="1" as="geometry">
            <mxPoint x="60" y="90" as="sourcePoint" />
            <Array as="points">
              <mxPoint x="85" y="90" />
            </Array>
          </mxGeometry>
        </mxCell>
        <mxCell id="9d85jHkb-GYw1wNce4ki-3" value="Matrix API" style="shape=umlLifeline;perimeter=lifelinePerimeter;whiteSpace=wrap;html=1;container=1;collapsible=0;recursiveResize=0;outlineConnect=0;" vertex="1" parent="1">
          <mxGeometry x="420" y="920" width="100" height="370" as="geometry" />
        </mxCell>
        <mxCell id="9d85jHkb-GYw1wNce4ki-12" value="" style="html=1;points=[];perimeter=orthogonalPerimeter;" vertex="1" parent="9d85jHkb-GYw1wNce4ki-3">
          <mxGeometry x="45" y="201" width="10" height="37" as="geometry" />
        </mxCell>
        <mxCell id="9d85jHkb-GYw1wNce4ki-4" value="ZK/PNS" style="shape=umlLifeline;perimeter=lifelinePerimeter;whiteSpace=wrap;html=1;container=1;collapsible=0;recursiveResize=0;outlineConnect=0;" vertex="1" parent="1">
          <mxGeometry x="560" y="920" width="100" height="370" as="geometry" />
        </mxCell>
        <mxCell id="9d85jHkb-GYw1wNce4ki-14" value="" style="html=1;points=[];perimeter=orthogonalPerimeter;" vertex="1" parent="9d85jHkb-GYw1wNce4ki-4">
          <mxGeometry x="45" y="155" width="10" height="30" as="geometry" />
        </mxCell>
        <mxCell id="9d85jHkb-GYw1wNce4ki-28" value="" style="html=1;points=[];perimeter=orthogonalPerimeter;" vertex="1" parent="9d85jHkb-GYw1wNce4ki-4">
          <mxGeometry x="45" y="260" width="10" height="30" as="geometry" />
        </mxCell>
        <mxCell id="9d85jHkb-GYw1wNce4ki-8" value="服务升级" style="html=1;verticalAlign=bottom;endArrow=block;" edge="1" parent="1">
          <mxGeometry width="80" relative="1" as="geometry">
            <mxPoint x="80" y="987" as="sourcePoint" />
            <mxPoint x="160" y="987" as="targetPoint" />
          </mxGeometry>
        </mxCell>
        <mxCell id="9d85jHkb-GYw1wNce4ki-23" value="升级完成" style="html=1;verticalAlign=bottom;endArrow=open;dashed=1;endSize=8;" edge="1" parent="1">
          <mxGeometry relative="1" as="geometry">
            <mxPoint x="460" y="1158" as="sourcePoint" />
            <mxPoint x="320" y="1158" as="targetPoint" />
          </mxGeometry>
        </mxCell>
        <mxCell id="9d85jHkb-GYw1wNce4ki-24" value="成功" style="html=1;verticalAlign=bottom;endArrow=open;dashed=1;endSize=8;" edge="1" parent="1">
          <mxGeometry relative="1" as="geometry">
            <mxPoint x="600" y="1100" as="sourcePoint" />
            <mxPoint x="320" y="1100" as="targetPoint" />
          </mxGeometry>
        </mxCell>
        <mxCell id="9d85jHkb-GYw1wNce4ki-25" value="上线实例" style="html=1;verticalAlign=bottom;endArrow=block;" edge="1" parent="1" target="9d85jHkb-GYw1wNce4ki-4">
          <mxGeometry width="80" relative="1" as="geometry">
            <mxPoint x="315" y="1180" as="sourcePoint" />
            <mxPoint x="395" y="1180" as="targetPoint" />
          </mxGeometry>
        </mxCell>
        <mxCell id="9d85jHkb-GYw1wNce4ki-29" value="成功" style="html=1;verticalAlign=bottom;endArrow=open;dashed=1;endSize=8;" edge="1" parent="1" target="9d85jHkb-GYw1wNce4ki-9">
          <mxGeometry relative="1" as="geometry">
            <mxPoint x="600" y="1210" as="sourcePoint" />
            <mxPoint x="520" y="1210" as="targetPoint" />
          </mxGeometry>
        </mxCell>
        <mxCell id="9d85jHkb-GYw1wNce4ki-30" value="升级完成" style="html=1;verticalAlign=bottom;endArrow=open;dashed=1;endSize=8;" edge="1" parent="1" target="9d85jHkb-GYw1wNce4ki-1">
          <mxGeometry relative="1" as="geometry">
            <mxPoint x="300" y="1240" as="sourcePoint" />
            <mxPoint x="220" y="1240" as="targetPoint" />
          </mxGeometry>
        </mxCell>
      </root>
    </mxGraphModel>
  </diagram>
</mxfile>
